<svg width="67" height="67" viewBox="0 0 67 67" fill="none" xmlns="http://www.w3.org/2000/svg">
<path d="M33.5002 5.58331C18.0818 5.58331 5.5835 18.0816 5.5835 33.5C5.5835 48.9184 18.0818 61.4166 33.5002 61.4166C48.9185 61.4166 61.4168 48.9184 61.4168 33.5C61.4168 18.0816 48.9185 5.58331 33.5002 5.58331Z" stroke="#545454" stroke-width="1.5" stroke-linecap="round" stroke-linejoin="round"/>
<path d="M11.9233 51.2159C11.9233 51.2159 18.146 43.2708 33.5001 43.2708C48.8543 43.2708 55.0797 51.2159 55.0797 51.2159M33.5001 33.5C35.7213 33.5 37.8515 32.6176 39.4222 31.047C40.9928 29.4764 41.8751 27.3462 41.8751 25.125C41.8751 22.9038 40.9928 20.7736 39.4222 19.203C37.8515 17.6324 35.7213 16.75 33.5001 16.75C31.2789 16.75 29.1487 17.6324 27.5781 19.203C26.0075 20.7736 25.1251 22.9038 25.1251 25.125C25.1251 27.3462 26.0075 29.4764 27.5781 31.047C29.1487 32.6176 31.2789 33.5 33.5001 33.5V33.5Z" stroke="#545454" stroke-width="1.5" stroke-linecap="round" stroke-linejoin="round"/>
</svg>
